<svg width="220" height="230" viewBox="0 0 220 230" fill="none" xmlns="http://www.w3.org/2000/svg">
<path d="M118 71L109 76L96 84L90 90V104V120L96 142L109 149L118 154L125 162H137L151 154L159 142H209V230H109H96L70 221L45 207L29 189L8 162L0 142V120V95L8 71L16 51L29 37L45 23L58 17L81 7L109 0H125L159 7L188 23L209 43L220 59L159 120L125 95V90V84V76L118 71Z" fill="#2C418C"/>
<path d="M160 93L152 87L160 69L152 57L137 47H116L89 57L71 87L76 128L93 162L110 175L132 181H152L167 175L179 165H193V208H110L89 199L76 191L61 181L46 170L36 154L27 134V120V108V93L36 69L46 57L66 41L89 29L116 22H132L152 29L173 36L185 47L193 57L160 93Z" fill="#FFDA7A"/>
</svg>
